<svg width="615" height="800" viewBox="0 0 615 800" fill="none" xmlns="http://www.w3.org/2000/svg">
<path d="M292.531 352.812C292.531 366.099 295.148 379.255 300.232 391.529C305.317 403.804 312.769 414.957 322.164 424.352C331.558 433.747 342.712 441.199 354.986 446.283C367.261 451.368 380.417 453.984 393.703 453.984C406.989 453.984 420.145 451.368 432.42 446.283C444.695 441.199 455.848 433.747 465.242 424.352C474.637 414.957 482.089 403.804 487.174 391.529C492.258 379.255 494.875 366.099 494.875 352.812C494.875 339.526 492.258 326.37 487.174 314.096C482.089 301.821 474.637 290.668 465.242 281.273C455.848 271.878 444.695 264.426 432.42 259.342C420.145 254.258 406.989 251.641 393.703 251.641C380.417 251.641 367.261 254.258 354.986 259.342C342.712 264.426 331.558 271.878 322.164 281.273C312.769 290.668 305.317 301.821 300.232 314.096C295.148 326.37 292.531 339.526 292.531 352.812Z" fill="#F4CE26"/>
<path d="M393.703 474.531C326.594 474.531 271.984 419.922 271.984 352.812C271.984 285.703 326.594 231.094 393.703 231.094C460.813 231.094 515.422 285.703 515.422 352.812C515.422 419.922 460.813 474.531 393.703 474.531ZM393.703 272.266C349.328 272.266 313.156 308.359 313.156 352.812C313.156 397.266 349.328 433.359 393.703 433.359C438.078 433.359 474.172 397.187 474.172 352.734C474.172 308.281 438.078 272.266 393.703 272.266Z" fill="#333333"/>
<path d="M300.266 154.687C309.484 149.375 321.281 152.5 326.594 161.719L345.891 195.078C351.203 204.297 348.078 216.094 338.859 221.406C329.641 226.719 317.844 223.594 312.531 214.375L293.234 181.016C287.844 171.719 291.047 160 300.266 154.687ZM539.094 317.5C541.828 327.812 552.375 333.906 562.687 331.094L599.875 321.094C610.187 318.359 616.281 307.812 613.469 297.5C610.734 287.187 600.187 281.094 589.875 283.906L552.687 293.906C542.453 296.641 536.359 307.187 539.094 317.5ZM528.781 404.141C526.047 414.453 532.141 425 542.375 427.734L579.562 437.734C589.875 440.469 600.422 434.375 603.156 424.141C605.891 413.828 599.797 403.281 589.562 400.547L552.375 390.547C542.141 387.812 531.594 393.906 528.781 404.141ZM428.078 126.406C438.703 126.406 447.375 135 447.375 145.703V184.219C447.375 194.844 438.781 203.516 428.078 203.516C417.453 203.516 408.781 194.922 408.781 184.219V145.703C408.781 135.078 417.375 126.406 428.078 126.406ZM558.625 180.703C551.125 173.203 538.937 173.203 531.359 180.703L504.094 207.969C496.594 215.469 496.594 227.656 504.094 235.234C511.594 242.734 523.781 242.734 531.359 235.234L558.625 207.969C566.203 200.391 566.203 188.203 558.625 180.703Z" fill="#333333"/>
<path d="M114.641 578.75C112.922 578.906 111.281 579.062 109.562 579.141C62.2969 581.797 22.8438 540.312 22.8438 492.422C22.8438 444.531 61.6719 405.703 109.562 405.703C112.844 405.703 116.125 405.859 119.328 406.25C119.25 404.453 119.25 402.656 119.25 400.859C119.25 334.375 173.156 280.469 239.641 280.469C298.391 280.469 347.297 322.5 357.922 378.125C363.313 377.266 368.859 376.797 374.484 376.797C430.344 376.797 475.656 422.109 475.656 477.969C475.5 513.672 457.062 545.078 429.094 563.047C413.312 573.203 394.562 579.688 374.406 579.063C371.672 578.984 369.016 578.828 366.359 578.516C365.5 578.594 364.562 578.594 363.703 578.594H114.641V578.75Z" fill="white"/>
<path d="M105.187 599.844C79.875 599.844 55.7344 590.078 36.5156 571.875C14.7188 551.25 2.21875 522.266 2.21875 492.422C2.21875 436.719 44.9531 390.703 99.3281 385.625C106.984 315.078 166.906 259.922 239.484 259.922C300.734 259.922 354.328 299.453 373.234 356.25H374.328C441.516 356.25 496.125 410.859 496.125 477.969C496.125 519.609 475.266 557.891 440.266 580.391C419.563 593.75 396.438 600.391 373.781 599.687C371.125 599.609 368.547 599.453 365.969 599.219C365.188 599.219 364.406 599.297 363.625 599.297H115.656C114.016 599.453 112.375 599.609 110.734 599.687C108.859 599.766 107.062 599.844 105.187 599.844ZM109.484 426.328C73.0781 426.328 43.3906 456.016 43.3906 492.422C43.3906 511.016 51.2031 529.062 64.7969 541.953C77.0625 553.594 92.6875 559.531 108.312 558.516C109.641 558.438 111.047 558.359 112.375 558.203L114.562 558.047H368.391C370.578 558.281 372.766 558.438 374.953 558.516C393.078 559.141 408.391 551.875 417.844 545.703C441.125 530.859 454.953 505.547 454.953 477.969C454.953 433.594 418.781 397.422 374.406 397.422C369.953 397.422 365.5 397.812 361.203 398.516L341.359 401.797L337.609 382.031C328.625 335.156 287.453 301.094 239.562 301.094C184.484 301.094 139.719 345.859 139.719 400.938C139.719 402.422 139.719 403.906 139.797 405.391L140.891 429.531L116.906 426.797C114.484 426.484 112.062 426.328 109.484 426.328Z" fill="#333333"/>
</svg>
